<?xml version="1.0" encoding="UTF-8"?>
<svg id="Layer_2" data-name="Layer 2" xmlns="http://www.w3.org/2000/svg" viewBox="0 0 89.14 25.37">
  <defs>
    <style>
      .cls-1 {
        fill: #4c6eb5;
      }

      .cls-1, .cls-2, .cls-3, .cls-4 {
        stroke-width: 0px;
      }

      .cls-2 {
        fill: #4bc0ae;
      }

      .cls-3 {
        fill: #214295;
      }

      .cls-4 {
        fill: #010101;
      }
    </style>
  </defs>
  <g id="Layer_1-2" data-name="Layer 1">
    <path class="cls-4" d="M62.94,9.63c-.92-.73-2.25-1.15-3.99-1.15s-3.44.37-5.23,1.79c-.09.09-.09.18,0,.27l1.56,1.56s.14.09.23.05c1.38-.83,2.25-1.1,3.26-1.1,1.33,0,2.02.64,2.02,1.97v.55l-2.25.09c-1.93.09-3.35.41-4.31,1.06-.96.64-1.42,1.65-1.42,3.03,0,1.29.37,2.29,1.05,3.03.69.69,1.7,1.05,2.94,1.05,1.01,0,1.84-.14,2.43-.41.55-.23,1.06-.64,1.56-1.24v1.24c0,.1.09.18.18.18h3.12c.1,0,.18-.09.18-.18v-8.35c.05-1.56-.41-2.71-1.33-3.44h0ZM60.09,18.58c-.5.46-1.15.69-1.97.69-1.15,0-1.7-.5-1.7-1.47,0-.69.23-1.19.73-1.56.5-.32,1.24-.5,2.29-.55l1.38-.05v1.06c0,.78-.23,1.42-.74,1.88h0ZM89.1,21.33l-4.31-6.2,4.09-6.15c.09-.14,0-.28-.14-.28h-3.63c-.19,0-.37.1-.46.28l-3.58,5.32V3.8c0-.1-.09-.18-.18-.18h-3.12c-.1,0-.18.09-.18.18v17.62c0,.1.09.18.18.18h3.12c.1,0,.18-.09.18-.18v-5.46l3.81,5.42c.11.15.28.23.46.23h3.63c.14,0,.23-.14.14-.28h0ZM50.73,21.61h-10.65c-.45,0-.82-.36-.83-.82,0,0,0,0,0,0V3.8c0-.1.09-.18.18-.18h3.17c.1,0,.18.09.18.18v14.23h7.89c.1,0,.18.09.18.18v3.17c.09.14,0,.23-.14.23ZM75.61,8.66c-2.66-.5-4.41.41-5.51,1.84v-1.61c0-.1-.09-.18-.18-.18h-3.12c-.1,0-.18.09-.18.18v12.53c0,.1.09.18.18.18h3.12c.1,0,.18-.09.18-.18v-6.84c0-.23.05-.5.09-.73.6-2.07,3.21-2.52,5.32-2.11.14.05.23-.05.23-.18v-2.71c0-.09-.05-.18-.14-.18h0Z"/>
    <path class="cls-2" d="M16.59,13.32l.08-.08c.05-.05.11-.11.16-.16l.11-.11.32-.32.45-.43.38-.38.36-.35.37-.37.34-.34.48-.47c.09-.09.18-.18.28-.26.17-.16.35-.31.53-.46.4-.32.83-.61,1.27-.88.25-.15.52-.29.78-.42.39-.19.8-.36,1.21-.49.07-.02.15-.05.23-.07-.66-2.59-1.87-5.02-3.54-7.11C20.06.23,19.57,0,19.05,0H5.37c-.14,0-.26.12-.26.26,0,.08.04.16.1.21,4.67,3.42,8.54,7.82,11.34,12.89l.03-.04h0Z"/>
    <path class="cls-1" d="M11.15,25.37c7.07,0,13.23-3.9,16.43-9.66.11-.2.22-.41.33-.61-.21.42-.47.81-.75,1.18-.16.21-.34.41-.52.61-.25.27-.53.51-.82.73-.12.09-.24.18-.37.27-.16.11-.33.21-.5.31-.5.28-1.03.5-1.58.65-.28.08-.56.14-.84.18-.2.03-.41.05-.62.07-.22.02-.44.02-.66.02-.25,0-.5-.02-.74-.05-.18-.02-.37-.05-.55-.08-.16-.03-.32-.06-.48-.1-.09-.02-.17-.04-.25-.07-.23-.06-.47-.13-.7-.2-.12-.04-.23-.07-.35-.1-.17-.05-.35-.1-.52-.16-.14-.04-.28-.09-.42-.14-.13-.04-.27-.09-.4-.13l-.27-.09-.33-.12-.23-.09c-.16-.05-.31-.11-.47-.17-.09-.04-.18-.07-.27-.1l-.36-.14-.38-.15-.25-.1-.3-.13-.23-.1-.24-.11-.21-.09-.19-.09-.2-.09-.2-.09-.25-.12-.27-.13c-.09-.05-.19-.09-.28-.14l-.24-.12C7.45,13.84,3.65,11.01.45,7.58c-.1-.1-.26-.11-.37,0-.05.05-.08.11-.08.18v12.08s0,.98,0,.98c0,.57.28,1.1.75,1.42,3.07,2.05,6.69,3.14,10.39,3.14h0Z"/>
    <path class="cls-3" d="M31.92,8.34c-2.49-1.22-5.35-1.44-7.99-.6-.07.02-.15.05-.23.07-.69.24-1.36.54-1.99.91-.26.15-.51.32-.76.49-.37.26-.72.54-1.05.84-.09.09-.18.17-.28.26l-.48.47-.34.34-.37.37-.36.35-.38.38-.44.44-.32.32-.11.11c-.05.05-.11.11-.16.16l-.08.08-.12.11-.14.13c-1.18,1.08-2.49,2.01-3.9,2.76l.25.12.2.09.2.09.19.09.21.09.24.11.23.1.3.13.25.1.38.15c.12.05.24.09.36.14.09.04.18.07.27.1.16.06.31.11.46.17l.23.09c.11.04.22.08.33.12l.27.09c.13.04.27.09.4.13.14.05.28.09.42.14.17.05.35.11.52.16.35.1.7.2,1.05.3.09.02.17.04.25.07.16.04.32.07.48.1.18.03.37.06.55.08.67.08,1.36.06,2.03-.04.28-.04.56-.1.84-.18.35-.1.7-.22,1.03-.37.28-.12.54-.27.8-.43.09-.05.16-.11.24-.16.13-.09.25-.17.37-.27.11-.08.21-.16.31-.25.38-.33.73-.7,1.03-1.1.28-.37.53-.76.75-1.17l.18-.36,1.63-3.25.02-.04c.53-1.16,1.27-2.21,2.18-3.1Z"/>
  </g>
</svg>